<svg width="11" height="7" viewBox="0 0 11 7" fill="none" xmlns="http://www.w3.org/2000/svg">
<path d="M5.20742 3.44991C5.21736 3.37088 5.17852 3.29016 5.08051 3.22984L1.05094 0.742183C0.872997 0.63243 0.584846 0.63243 0.406906 0.742183C0.228948 0.851946 0.228948 1.02986 0.406906 1.1399L4.14879 3.44991L0.406906 5.75994C0.228948 5.86969 0.228948 6.0476 0.406906 6.15737C0.584863 6.26712 0.873014 6.26712 1.05094 6.15737L5.08053 3.66971C5.17852 3.60939 5.21692 3.52896 5.20742 3.44991ZM10.545 3.22984L5.60444 0.179971C5.42648 0.0702181 5.13833 0.0702181 4.96039 0.179971C4.78244 0.289734 4.78244 0.467922 4.96039 0.577402L9.61323 3.44991L4.96037 6.32215C4.78242 6.43191 4.78242 6.60982 4.96037 6.71986C5.13833 6.82963 5.42648 6.82963 5.60442 6.71986L10.5445 3.67001C10.6425 3.60968 10.6809 3.52896 10.671 3.44992C10.6814 3.37088 10.6425 3.29016 10.545 3.22984Z" fill="#FF6A00"/>
</svg>
