<svg id="Layer_1" data-name="Layer 1" xmlns="http://www.w3.org/2000/svg" viewBox="0 0 89 89"><defs><style>.cls-1{fill:#b93c3c;}.cls-2{fill:#fff;}</style></defs><title>logo lau mat do</title><path class="cls-1" d="M35.58,18.78l.13.11c1.11,1,9.22,8.16,9.22,9.25s1.17,9.35,1.17,10.52-1.17,14-1.17,14l-.6,6.77s-3.56,12.27-4.4,12.72-7.85,5.49-9.23,6-8.53-1.82-8.53-1.82-8.09-10.45-8.24-10.91.15-.83-1.45-4.11S9.36,41.6,9.36,41.6l2.29-14.1,1.75-6.63s2-3.28,3.12-3.36"/><rect class="cls-1" x="63.64" y="7.1" width="19.87" height="74.81"/><path class="cls-2" d="M84.68,85.15H61.24V3.85H84.68ZM78.17,45.76l-.32,0c-.74,0-.74,0-.74-.79,0-1.56-.06-3.11,0-4.67a3.55,3.55,0,0,0-1.41-2.91.87.87,0,0,0-1-.2c-1.49.55-3,1.1-4.48,1.62a.91.91,0,0,0-.69,1c0,4.18,0,8.36,0,12.54a2.19,2.19,0,0,1-1.34,2.38l.33.62c1.51-.63,3-1.23,4.4-1.85.29-.13.33-.67.06-.76-.77-.25-.73-.89-.75-1.47,0-1.33,0-2.66,0-4a3.29,3.29,0,0,1,0-.44h2c0,.2,0,.36,0,.53,0,1.78,0,3.56,0,5.34a2,2,0,0,0,1.15,1.79.47.47,0,0,0,.4,0c.72-.37,1.42-.76,2.11-1.17.31-.19.37-.46,0-.63a1.53,1.53,0,0,1-.9-1.59c0-1.15,0-2.29,0-3.43,0-.65.13-1.08.77-1.29C78.16,46.32,78.34,46.13,78.17,45.76Zm-4.68,16.8c.61,0,.83.41.87,1,0,.34.06.68.06,1q0,4.53,0,9.06c0,.43,0,.86,0,1.29a.47.47,0,0,1-.31.33,1.52,1.52,0,0,1-1.7-1.3,5.67,5.67,0,0,1-.11-1c0-3.73,0-7.46,0-11.19A1.88,1.88,0,0,0,71.11,60a.35.35,0,0,0-.3,0c-.73.39-1.45.77-2.16,1.2-.26.16-.3.48,0,.61a1.63,1.63,0,0,1,.94,1.75c0,3.66,0,7.31,0,11a3.46,3.46,0,0,0,.83,2.32,1.28,1.28,0,0,0,1.86.41c.66-.38,1.34-.72,2-1.09.09.2.14.35.21.5.31.56,1,1,1.4.76.71-.39,1.4-.79,2.1-1.2.26-.15.34-.4,0-.55a1.85,1.85,0,0,1-1-1.88c0-3.57,0-7.13,0-10.69,0-1.1.14-2.1,1.33-2.58l-.32-.61c-1.41.59-2.78,1.18-4.16,1.73C73.53,61.84,73.34,62.05,73.49,62.56Zm-4.07-48c.72.26.87.48.87,1.42,0,3.28.07,6.57,0,9.84a4.21,4.21,0,0,0,3.1,3.75,1.26,1.26,0,0,0,.66-.06c.89-.32,1.77-.69,2.67-1a.48.48,0,0,0,.36-.72l-1.49-.15c-2-.2-2.53-.78-2.54-2.8,0-3.26,0-6.53,0-9.79,0-1.05.18-2,1.32-2.44L74,12c-1.4.59-2.77,1.19-4.16,1.74C69.41,13.9,69.29,14.15,69.42,14.57Zm2.2,17.48c-1.26,0-1.48.33-1,1.17a24.62,24.62,0,0,0,1.71,2.43,1.2,1.2,0,0,0,.83.33c.09,0,.27-.39.31-.62.16-.92-.4-1.64-.69-2.44A1.18,1.18,0,0,0,71.62,32.05Z"/><path class="cls-2" d="M12.21,26.5l2.2,1.27,0,.15h-1.1c-.29.81.6.56.73.9l-1,.5.58.64c-.2.12-.57.23-.67.45s.17.49.28.76c-.75.4-.6.49-.21,1-.33.23-.7.47-.31.82-.13.53-.28,1-.35,1.45-.23,1.43-.44,2.87-.64,4.3-.17,1.23-.34,2.45-.47,3.68a.94.94,0,0,0,.32.62,1.37,1.37,0,0,0,.62.24A27.94,27.94,0,0,1,20.7,47c.68.43.88.34,1-.46a8,8,0,0,0,.12-1,2.58,2.58,0,0,1,.13-.93c.09.19.18.38.25.57a11.17,11.17,0,0,0,2,3.51,1.14,1.14,0,0,1,.18.67c0,2.94-.06,5.88-.08,8.83a1.88,1.88,0,0,0,2.51,2,23.12,23.12,0,0,0,2.51-.88,5.93,5.93,0,0,1-1.07,1.37c-.78.53-.55,1.2-.54,1.93,1.17,0,2.29,0,3.42,0a2.89,2.89,0,0,1,2.23,1c.76.8,1.57,1.55,2.36,2.32l-.05.14a17.53,17.53,0,0,1-2.81,0c-.42-.07-.77-.63-1.11-1a1.32,1.32,0,0,0-1.07-.46c-2.63,0-5.26,0-7.88,0a1.71,1.71,0,0,0-1.46.89h9.06l0,.15c-.36.1-.72.23-1.09.3-.83.14-1.66.3-2.5.37-.57,0-.87.22-.81.82,0,.3,0,.59,0,1A14.37,14.37,0,0,0,32,67a4.15,4.15,0,0,1-.52.42c-.8.48-1.62.93-2.42,1.43a.73.73,0,0,0-.34.48A8.47,8.47,0,0,0,30,74.09a5.57,5.57,0,0,0,1.37,1.37A1.13,1.13,0,0,0,33,75.29a43.29,43.29,0,0,0,7.87-9.85C42,63.61,42.94,61.72,44,59.85a1,1,0,0,1,.35-.4c0,.23,0,.46,0,.69.15,4-1.09,7.64-2.73,11.18a41,41,0,0,1-5.23,8.24,7,7,0,0,1-4.73,2.73,31.11,31.11,0,0,1-9.68-.07,6.73,6.73,0,0,1-3.82-2.09,33.52,33.52,0,0,1-8.7-16.2c-1.15-5.8-2.92-11.41-4.35-17.12a18.05,18.05,0,0,1-.41-3.28c-.14-3.07-.33-6.14-.32-9.22a85.85,85.85,0,0,1,.85-12,6.29,6.29,0,0,1,3.48-5,28.47,28.47,0,0,1,8.57-2.76l2.26-.34V11.75A6.83,6.83,0,0,1,33,10.13a8.33,8.33,0,0,1,.18,1.73c0,.76,0,1.53,0,2.32,1,.16,2,.29,3,.46A30,30,0,0,1,43.61,17a6.14,6.14,0,0,1,3.81,5.26,5.88,5.88,0,0,0,.14,1,2.82,2.82,0,0,1-.5,2.58A12.61,12.61,0,0,0,46,27.81l2-1.15c.08,1.12.22,2.1.21,3.09q-.09,6.68-.24,13.37c0,1-.13,2-.21,3a1.36,1.36,0,0,1-.11.43q-1.24,2.76-2.5,5.52a.34.34,0,0,1-.25.2c0-.31,0-.61,0-.91.18-2,.45-4.07.51-6.11A14.63,14.63,0,0,0,45,42c-1-4.79-2-9.57-2.93-14.35a1.72,1.72,0,0,1,.12-.86c.16-.41.39-.8.58-1.24-1.13,1.27-2.66.78-4,.89-3.72.3-7.44.51-11.17.66-1.7.08-3.41,0-5.11-.1-2.17-.11-4.34-.27-6.51-.41l-3.68-.21Zm.48,25.11c0,.15,0,.2,0,.26a30.37,30.37,0,0,0,.75,7.36,3.28,3.28,0,0,0,2.7,2.46,5.61,5.61,0,0,0,3.77-1A4.81,4.81,0,0,0,22,57.41a28,28,0,0,0-.21-4.92c-.06-.68-.59-.93-1.25-.71-.5.17-1,.34-1.5.47C16.89,52.76,14.71,53.25,12.69,51.61Zm12,11.09c0-.43,0-.78,0-1.13a.4.4,0,0,0-.17-.3c-.8-.48-1.62-.93-2.46-1.41a11.39,11.39,0,0,1-3.54,2.3,2.08,2.08,0,0,0-.65,2.91c.25.3.48.37.78,0,.51-.57,1.05-1.11,1.58-1.68a2.14,2.14,0,0,1,1.69-.73ZM18.15,47.85l.05-.26-6.81-2c-.14,1,0,1.28.79,1.5a17.3,17.3,0,0,0,2.35.52C15.73,47.72,16.94,47.76,18.15,47.85Zm-4.69.53A5.19,5.19,0,0,0,16,50.65l-.14-1.93Zm7.22,2.27c-.17-1.12-.47-1.44-1.29-1.47l-.28,1.47Zm5.17,12h.89V61.53h-.89Z"/><path class="cls-2" d="M42.08,42.43a5.16,5.16,0,0,1-1,2.7,1.85,1.85,0,0,1-.9.5l-6.93,2a3.76,3.76,0,0,0-.54.25l0,.15c.5,0,1,0,1.52,0,1-.1,1.94-.21,2.89-.4.61-.13,1.19-.44,1.79-.62a.87.87,0,0,1,.61.07.44.44,0,0,1,.11.42c-1,2.09-2.26,3.91-4.68,4.52a12,12,0,0,1-5,0c-1.13-.19-1.12-.2-1.66.78a3.69,3.69,0,0,1-.26.31c-.07-.63-.12-1.14-.2-1.64a2.87,2.87,0,0,0-.22-.62,5.61,5.61,0,0,1-.58-1.49,19.7,19.7,0,0,1,.06-3.25c.11.22.21.45.33.66A9.8,9.8,0,0,0,28.27,48c.49.61.9.62,1.55.17,1.27-.88,2.53-1.81,3.86-2.61a23,23,0,0,1,6.53-2.48A15.59,15.59,0,0,0,42.08,42.43Zm-6.25,8,.14.13,2-2-.12-.13c-1,.19-2.16-.06-3,.92l1.1.22Zm-3.37-1.42c-.93-.07-1.57.49-1.75,1.58h2Z"/><path class="cls-2" d="M72.27,46.24V44.41c0-1.42,0-2.84,0-4.27,0-.5.12-.83.63-.94a1,1,0,0,1,1.28.55,2.4,2.4,0,0,1,.19.92c0,1.52,0,3,0,4.55,0,.34-.07.47-.45.53A10.83,10.83,0,0,0,72.27,46.24Z"/></svg>